<svg xmlns="http://www.w3.org/2000/svg" width="330" height="207" fill="none" xmlns:v="https://vecta.io/nano"><g filter="url(#A)"><ellipse cx="104.5" cy="96.5" rx="100.5" ry="96.5" fill="url(#C)" fill-opacity=".85"/></g><g filter="url(#B)"><path d="M212.98 83.32c.607 0 1.143.14 1.6.42.513.233.957.7 1.33 1.4l.98 1.82h1.12c1.073-1.54 2.24-2.567 3.5-3.08 1.307-.56 3.15-.84 5.53-.84 1.027 0 1.633.047 1.82.14v5.74H226c-3.64 0-6.207.77-7.7 2.3V120h-7V90.95l-1.6-7.63h3.3zm50.633 28.07c0 1.587.163 2.73.5 3.43.327.653 1.05 1.143 2.17 1.47l-.98 4.2c-.047.047-.233.117-.56.2-.28.093-.677.14-1.2.14-1.353-.047-2.38-.28-3.08-.7-.7-.373-1.377-1.143-2.03-2.3l-1.05-1.9h-1.12c-1.26 1.68-2.707 2.917-4.34 3.7s-3.617 1.2-5.95 1.2c-3.593 0-6.44-.933-8.54-2.8-2.1-1.913-3.15-4.643-3.15-8.2 0-3.64 1.167-6.347 3.5-8.12s5.973-2.847 10.92-3.22l7.98-.63v-2.3c0-2.8-.607-4.783-1.82-5.95-1.213-1.213-3.453-1.82-6.72-1.82-2.38 0-5.67.513-9.87 1.54l-1.26-4.13c1.587-.607 3.593-1.12 6.02-1.54s4.527-.63 6.3-.63c4.713 0 8.26.957 10.64 2.87 2.427 1.867 3.64 4.877 3.64 9.03v16.45zm-13.65-8.68c-5.693.42-8.54 2.683-8.54 6.8 0 4.387 2.193 6.58 6.58 6.58 2.473 0 4.527-.583 6.16-1.75 1.68-1.213 2.52-3.173 2.52-5.88v-6.23l-6.72.5z" fill="#448a2b"/><path d="M47.75 120V67.5h6.75l22.65 33.6c.65.95 1.25 2.125 1.8 3.525l1.275 3.75.675 2.1 1.2-.225-.6-4.2-.45-4.65V67.5h7.5V120H81.8L59 86.325c-.65-.95-1.25-2.1-1.8-3.45l-1.275-3.6-.525-2.1-1.2.225.6 4.275.45 4.65V120h-7.5zm80.842-8.6c0 1.587.164 2.73.5 3.43.327.653 1.05 1.143 2.17 1.47l-.98 4.2c-.046.047-.233.117-.56.2-.28.093-.676.14-1.2.14-1.353-.047-2.38-.28-3.08-.7-.7-.373-1.376-1.143-2.03-2.3l-1.05-1.9h-1.12c-1.26 1.68-2.706 2.917-4.34 3.7s-3.616 1.2-5.95 1.2c-3.593 0-6.44-.933-8.54-2.8-2.1-1.913-3.15-4.643-3.15-8.2 0-3.64 1.166-6.347 3.5-8.12s5.974-2.847 10.92-3.22l7.98-.63v-2.3c0-2.8-.606-4.783-1.82-5.95-1.213-1.213-3.453-1.82-6.72-1.82-2.38 0-5.67.513-9.87 1.54l-1.26-4.13c1.587-.607 3.594-1.12 6.02-1.54s4.527-.63 6.3-.63c4.714 0 8.26.957 10.64 2.87 2.427 1.867 3.64 4.877 3.64 9.03v16.45zm-13.65-8.68c-5.693.42-8.54 2.683-8.54 6.8 0 4.387 2.194 6.58 6.58 6.58 2.474 0 4.527-.583 6.16-1.75 1.68-1.213 2.52-3.173 2.52-5.88v-6.23l-6.72.5zm27.682-23.6c.234-1.353.654-2.357 1.26-3s1.47-.98 2.6-.98h2.24v8.75h10.36v4.83h-10.36v21.14c0 1.96.35 3.453 1.05 4.48.747 1.027 2.3 1.54 4.7 1.54 1.447 0 3.104-.187 4.97-.56l.9 4.62c-.513.187-1.516.373-3 .56-1.446.233-2.66.35-3.64.35-4.433 0-7.536-.957-9.3-2.87-1.773-1.96-2.66-5.1-2.66-9.45V88.7h-5.32v-2.45l5.32-2.38.9-4.76zm38.047 41.72c-4.293 0-7.443-1.2-9.45-3.57-2.006-2.427-3-6.113-3-11.06V83.88h7v22.26c0 3.08.5 5.507 1.47 7.28 1.027 1.773 2.847 2.66 5.46 2.66 3.407 0 6.37-.887 8.9-2.66V83.88h7v29.05l1.6 7.63h-3.43c-.606 0-1.166-.14-1.68-.42-.466-.233-.886-.7-1.26-1.4l-.98-1.82h-1.12c-1.446 1.54-2.916 2.567-4.4 3.08-1.493.56-3.523.84-6.1.84z" fill="#fff"/></g><path d="M274.428 70c7.6 4 22.834-9 29.5-16-5.333 8.174-19.7 23.718-34.5 20.5-1.5-5-12.297-32 60.203-55.5 1.677 54-32.814 64.476-51 60 21 .5 41.297-20.5 41.297-42.5-30.5-.5-47 22.5-45.5 33.5z" fill="url(#D)"/><defs><filter id="A" x="0" y="0" width="209" height="201" filterUnits="userSpaceOnUse" color-interpolation-filters="sRGB"><feFlood flood-opacity="0" result="A"/><feColorMatrix in="SourceAlpha" values="0 0 0 0 0 0 0 0 0 0 0 0 0 0 0 0 0 0 127 0"/><feOffset dy="4"/><feGaussianBlur stdDeviation="2"/><feColorMatrix values="0 0 0 0 0 0 0 0 0 0 0 0 0 0 0 0 0 0 0.25 0"/><feBlend in2="A"/><feBlend in="SourceGraphic"/></filter><filter id="B" x="43.75" y="67.5" width="226.523" height="61.34" filterUnits="userSpaceOnUse" color-interpolation-filters="sRGB"><feFlood flood-opacity="0" result="A"/><feColorMatrix in="SourceAlpha" values="0 0 0 0 0 0 0 0 0 0 0 0 0 0 0 0 0 0 127 0"/><feOffset dy="4"/><feGaussianBlur stdDeviation="2"/><feColorMatrix values="0 0 0 0 0 0 0 0 0 0 0 0 0 0 0 0 0 0 0.25 0"/><feBlend in2="A"/><feBlend in="SourceGraphic"/></filter><linearGradient id="C" x1="19.5" y1="96" x2="205" y2="96" gradientUnits="userSpaceOnUse"><stop stop-color="#2e8111"/><stop offset=".375" stop-color="#2e8111"/><stop offset="1" stop-color="#2e8111" stop-opacity=".85"/></linearGradient><linearGradient id="D" x1="286.631" y1="79.5" x2="318.131" y2="33" gradientUnits="userSpaceOnUse"><stop stop-color="#17742d"/><stop offset="1" stop-color="#4eb333" stop-opacity=".95"/></linearGradient></defs></svg>